<mxfile host="app.diagrams.net" agent="Mozilla/5.0 (Windows NT 10.0; Win64; x64) AppleWebKit/537.36 (KHTML, like Gecko) Chrome/131.0.0.0 Safari/537.36" version="25.0.3">
  <diagram name="Page-1" id="Sdp29pomEdEhUppgCIxa">
    <mxGraphModel dx="1114" dy="1784" grid="1" gridSize="10" guides="1" tooltips="1" connect="1" arrows="1" fold="1" page="1" pageScale="1" pageWidth="850" pageHeight="1100" math="0" shadow="0">
      <root>
        <mxCell id="0" />
        <mxCell id="1" parent="0" />
        <mxCell id="I6Itle-dX4zbaedqjeKb-5" value="" style="edgeStyle=orthogonalEdgeStyle;rounded=0;orthogonalLoop=1;jettySize=auto;html=1;strokeWidth=2;" edge="1" parent="1" source="I6Itle-dX4zbaedqjeKb-1" target="I6Itle-dX4zbaedqjeKb-4">
          <mxGeometry relative="1" as="geometry" />
        </mxCell>
        <mxCell id="I6Itle-dX4zbaedqjeKb-1" value="&lt;b&gt;&lt;font style=&quot;font-size: 16px;&quot;&gt;Initialize&lt;/font&gt;&lt;/b&gt;&lt;div&gt;&lt;b&gt;&lt;font style=&quot;font-size: 16px;&quot;&gt;w&lt;/font&gt;o&lt;/b&gt;&lt;/div&gt;" style="rounded=0;whiteSpace=wrap;html=1;strokeWidth=2;" vertex="1" parent="1">
          <mxGeometry x="200" y="30" width="120" height="60" as="geometry" />
        </mxCell>
        <mxCell id="I6Itle-dX4zbaedqjeKb-3" style="edgeStyle=orthogonalEdgeStyle;rounded=0;orthogonalLoop=1;jettySize=auto;html=1;entryX=0.5;entryY=0;entryDx=0;entryDy=0;strokeWidth=2;" edge="1" parent="1" source="I6Itle-dX4zbaedqjeKb-2" target="I6Itle-dX4zbaedqjeKb-1">
          <mxGeometry relative="1" as="geometry" />
        </mxCell>
        <mxCell id="I6Itle-dX4zbaedqjeKb-2" value="&lt;b&gt;&lt;font style=&quot;font-size: 16px;&quot;&gt;Start&lt;/font&gt;&lt;/b&gt;" style="ellipse;whiteSpace=wrap;html=1;strokeWidth=2;" vertex="1" parent="1">
          <mxGeometry x="200" y="-50" width="120" height="50" as="geometry" />
        </mxCell>
        <mxCell id="I6Itle-dX4zbaedqjeKb-7" value="" style="edgeStyle=orthogonalEdgeStyle;rounded=0;orthogonalLoop=1;jettySize=auto;html=1;strokeWidth=2;" edge="1" parent="1" source="I6Itle-dX4zbaedqjeKb-4" target="I6Itle-dX4zbaedqjeKb-6">
          <mxGeometry relative="1" as="geometry" />
        </mxCell>
        <mxCell id="I6Itle-dX4zbaedqjeKb-4" value="&lt;span style=&quot;font-size: 16px;&quot;&gt;&lt;b&gt;Client Selection&lt;/b&gt;&lt;/span&gt;" style="rounded=0;whiteSpace=wrap;html=1;strokeWidth=2;" vertex="1" parent="1">
          <mxGeometry x="200" y="120" width="120" height="60" as="geometry" />
        </mxCell>
        <mxCell id="I6Itle-dX4zbaedqjeKb-9" value="" style="edgeStyle=orthogonalEdgeStyle;rounded=0;orthogonalLoop=1;jettySize=auto;html=1;strokeWidth=2;" edge="1" parent="1" source="I6Itle-dX4zbaedqjeKb-6" target="I6Itle-dX4zbaedqjeKb-8">
          <mxGeometry relative="1" as="geometry" />
        </mxCell>
        <mxCell id="I6Itle-dX4zbaedqjeKb-6" value="&lt;b style=&quot;&quot;&gt;&lt;span style=&quot;font-size: 16px;&quot;&gt;Calculating T&lt;/span&gt;&lt;font&gt;q&lt;/font&gt;&lt;/b&gt;" style="rounded=0;whiteSpace=wrap;html=1;strokeWidth=2;" vertex="1" parent="1">
          <mxGeometry x="200" y="210" width="120" height="60" as="geometry" />
        </mxCell>
        <mxCell id="I6Itle-dX4zbaedqjeKb-13" value="" style="edgeStyle=orthogonalEdgeStyle;rounded=0;orthogonalLoop=1;jettySize=auto;html=1;strokeWidth=2;" edge="1" parent="1" source="I6Itle-dX4zbaedqjeKb-8" target="I6Itle-dX4zbaedqjeKb-12">
          <mxGeometry relative="1" as="geometry" />
        </mxCell>
        <mxCell id="I6Itle-dX4zbaedqjeKb-8" value="&lt;b style=&quot;&quot;&gt;&lt;span style=&quot;font-size: 16px;&quot;&gt;Calculating&amp;nbsp;&lt;/span&gt;&lt;/b&gt;&lt;div&gt;&lt;b style=&quot;&quot;&gt;&lt;span style=&quot;font-size: 16px;&quot;&gt;mode[T&lt;/span&gt;&lt;font&gt;q&lt;/font&gt;&lt;span style=&quot;font-size: 16px;&quot;&gt;]&lt;/span&gt;&lt;/b&gt;&lt;/div&gt;" style="rounded=0;whiteSpace=wrap;html=1;strokeWidth=2;" vertex="1" parent="1">
          <mxGeometry x="200" y="300" width="120" height="60" as="geometry" />
        </mxCell>
        <mxCell id="I6Itle-dX4zbaedqjeKb-15" value="" style="edgeStyle=orthogonalEdgeStyle;rounded=0;orthogonalLoop=1;jettySize=auto;html=1;strokeWidth=2;" edge="1" parent="1" source="I6Itle-dX4zbaedqjeKb-12" target="I6Itle-dX4zbaedqjeKb-14">
          <mxGeometry relative="1" as="geometry" />
        </mxCell>
        <mxCell id="I6Itle-dX4zbaedqjeKb-16" value="&lt;b&gt;YES&lt;/b&gt;" style="edgeLabel;html=1;align=center;verticalAlign=middle;resizable=0;points=[];" vertex="1" connectable="0" parent="I6Itle-dX4zbaedqjeKb-15">
          <mxGeometry x="-0.3027" y="2" relative="1" as="geometry">
            <mxPoint as="offset" />
          </mxGeometry>
        </mxCell>
        <mxCell id="I6Itle-dX4zbaedqjeKb-18" value="" style="edgeStyle=orthogonalEdgeStyle;rounded=0;orthogonalLoop=1;jettySize=auto;html=1;entryX=0;entryY=0.5;entryDx=0;entryDy=0;strokeWidth=2;" edge="1" parent="1" source="I6Itle-dX4zbaedqjeKb-12" target="I6Itle-dX4zbaedqjeKb-20">
          <mxGeometry relative="1" as="geometry">
            <mxPoint x="480" y="300" as="targetPoint" />
          </mxGeometry>
        </mxCell>
        <mxCell id="I6Itle-dX4zbaedqjeKb-19" value="&lt;b&gt;NO&lt;/b&gt;" style="edgeLabel;html=1;align=center;verticalAlign=middle;resizable=0;points=[];" vertex="1" connectable="0" parent="I6Itle-dX4zbaedqjeKb-18">
          <mxGeometry x="-0.1194" relative="1" as="geometry">
            <mxPoint as="offset" />
          </mxGeometry>
        </mxCell>
        <mxCell id="I6Itle-dX4zbaedqjeKb-12" value="&lt;font style=&quot;font-size: 16px;&quot;&gt;&lt;b&gt;if mode[tq] =small&lt;/b&gt;&lt;/font&gt;" style="rhombus;whiteSpace=wrap;html=1;rounded=0;strokeWidth=2;" vertex="1" parent="1">
          <mxGeometry x="200" y="390" width="120" height="120" as="geometry" />
        </mxCell>
        <mxCell id="I6Itle-dX4zbaedqjeKb-24" style="edgeStyle=orthogonalEdgeStyle;rounded=0;orthogonalLoop=1;jettySize=auto;html=1;strokeWidth=2;" edge="1" parent="1" source="I6Itle-dX4zbaedqjeKb-14" target="I6Itle-dX4zbaedqjeKb-22">
          <mxGeometry relative="1" as="geometry" />
        </mxCell>
        <mxCell id="I6Itle-dX4zbaedqjeKb-14" value="&lt;font face=&quot;Helvetica&quot; style=&quot;font-size: 16px;&quot;&gt;&lt;b style=&quot;&quot;&gt;E is epoch and&amp;nbsp;&lt;/b&gt;&lt;/font&gt;&lt;div&gt;&lt;span style=&quot;font-size: 14px; text-align: start;&quot;&gt;&lt;font style=&quot;&quot; face=&quot;Helvetica&quot;&gt;&lt;b&gt;η=&amp;nbsp;Big&lt;/b&gt;&lt;/font&gt;&lt;/span&gt;&lt;/div&gt;" style="whiteSpace=wrap;html=1;rounded=0;strokeWidth=2;" vertex="1" parent="1">
          <mxGeometry x="200" y="540" width="120" height="60" as="geometry" />
        </mxCell>
        <mxCell id="I6Itle-dX4zbaedqjeKb-23" value="" style="edgeStyle=orthogonalEdgeStyle;rounded=0;orthogonalLoop=1;jettySize=auto;html=1;strokeWidth=2;" edge="1" parent="1" source="I6Itle-dX4zbaedqjeKb-17" target="I6Itle-dX4zbaedqjeKb-22">
          <mxGeometry relative="1" as="geometry" />
        </mxCell>
        <mxCell id="I6Itle-dX4zbaedqjeKb-17" value="&lt;font style=&quot;&quot; face=&quot;Helvetica&quot;&gt;&lt;b style=&quot;&quot;&gt;&lt;span style=&quot;font-size: 16px;&quot;&gt;E&lt;/span&gt;&lt;font&gt;n&lt;/font&gt;&lt;span style=&quot;font-size: 16px;&quot;&gt; is epoch and&amp;nbsp;&lt;/span&gt;&lt;/b&gt;&lt;/font&gt;&lt;div&gt;&lt;span style=&quot;font-size: 14px; text-align: start;&quot;&gt;&lt;font face=&quot;Helvetica&quot;&gt;&lt;b&gt;η= Small&lt;/b&gt;&lt;/font&gt;&lt;/span&gt;&lt;/div&gt;" style="whiteSpace=wrap;html=1;rounded=0;strokeWidth=2;" vertex="1" parent="1">
          <mxGeometry x="376" y="280" width="120" height="60" as="geometry" />
        </mxCell>
        <mxCell id="I6Itle-dX4zbaedqjeKb-21" style="edgeStyle=orthogonalEdgeStyle;rounded=0;orthogonalLoop=1;jettySize=auto;html=1;exitX=0.5;exitY=0;exitDx=0;exitDy=0;entryX=0.5;entryY=1;entryDx=0;entryDy=0;strokeWidth=2;" edge="1" parent="1" source="I6Itle-dX4zbaedqjeKb-20" target="I6Itle-dX4zbaedqjeKb-17">
          <mxGeometry relative="1" as="geometry" />
        </mxCell>
        <mxCell id="I6Itle-dX4zbaedqjeKb-20" value="&lt;span style=&quot;font-size: 16px;&quot;&gt;&lt;b&gt;Calculate&lt;/b&gt;&lt;/span&gt;&lt;div&gt;&lt;b style=&quot;&quot;&gt;&lt;span style=&quot;font-size: 16px;&quot;&gt;E&lt;/span&gt;&lt;font&gt;n&lt;/font&gt;&lt;/b&gt;&lt;/div&gt;" style="rounded=0;whiteSpace=wrap;html=1;strokeWidth=2;" vertex="1" parent="1">
          <mxGeometry x="376" y="420" width="120" height="60" as="geometry" />
        </mxCell>
        <mxCell id="I6Itle-dX4zbaedqjeKb-41" style="edgeStyle=orthogonalEdgeStyle;rounded=0;orthogonalLoop=1;jettySize=auto;html=1;exitX=0.5;exitY=0;exitDx=0;exitDy=0;entryX=0.5;entryY=1;entryDx=0;entryDy=0;strokeWidth=2;" edge="1" parent="1" source="I6Itle-dX4zbaedqjeKb-22" target="I6Itle-dX4zbaedqjeKb-38">
          <mxGeometry relative="1" as="geometry" />
        </mxCell>
        <mxCell id="I6Itle-dX4zbaedqjeKb-22" value="&lt;span style=&quot;font-size: 16px;&quot;&gt;&lt;b&gt;Train the Model&lt;/b&gt;&lt;/span&gt;" style="whiteSpace=wrap;html=1;rounded=0;strokeWidth=2;" vertex="1" parent="1">
          <mxGeometry x="562" y="280" width="120" height="60" as="geometry" />
        </mxCell>
        <mxCell id="I6Itle-dX4zbaedqjeKb-36" value="&lt;b&gt;&lt;font style=&quot;font-size: 16px;&quot;&gt;End&lt;/font&gt;&lt;/b&gt;" style="ellipse;whiteSpace=wrap;html=1;strokeWidth=2;" vertex="1" parent="1">
          <mxGeometry x="562" y="-50" width="120" height="50" as="geometry" />
        </mxCell>
        <mxCell id="I6Itle-dX4zbaedqjeKb-39" style="edgeStyle=orthogonalEdgeStyle;rounded=0;orthogonalLoop=1;jettySize=auto;html=1;entryX=1;entryY=0.5;entryDx=0;entryDy=0;strokeWidth=2;" edge="1" parent="1" source="I6Itle-dX4zbaedqjeKb-38" target="I6Itle-dX4zbaedqjeKb-4">
          <mxGeometry relative="1" as="geometry" />
        </mxCell>
        <mxCell id="I6Itle-dX4zbaedqjeKb-42" value="&lt;b&gt;YES&lt;/b&gt;" style="edgeLabel;html=1;align=center;verticalAlign=middle;resizable=0;points=[];" vertex="1" connectable="0" parent="I6Itle-dX4zbaedqjeKb-39">
          <mxGeometry x="-0.0773" y="1" relative="1" as="geometry">
            <mxPoint as="offset" />
          </mxGeometry>
        </mxCell>
        <mxCell id="I6Itle-dX4zbaedqjeKb-40" style="edgeStyle=orthogonalEdgeStyle;rounded=0;orthogonalLoop=1;jettySize=auto;html=1;exitX=0.5;exitY=0;exitDx=0;exitDy=0;entryX=0.5;entryY=1;entryDx=0;entryDy=0;strokeWidth=2;" edge="1" parent="1" source="I6Itle-dX4zbaedqjeKb-38" target="I6Itle-dX4zbaedqjeKb-36">
          <mxGeometry relative="1" as="geometry" />
        </mxCell>
        <mxCell id="I6Itle-dX4zbaedqjeKb-43" value="&lt;b&gt;NO&lt;/b&gt;" style="edgeLabel;html=1;align=center;verticalAlign=middle;resizable=0;points=[];" vertex="1" connectable="0" parent="I6Itle-dX4zbaedqjeKb-40">
          <mxGeometry x="-0.1386" y="-1" relative="1" as="geometry">
            <mxPoint as="offset" />
          </mxGeometry>
        </mxCell>
        <mxCell id="I6Itle-dX4zbaedqjeKb-38" value="&lt;font style=&quot;font-size: 16px;&quot;&gt;&lt;b&gt;if rounds(t)&amp;nbsp;&lt;/b&gt;&lt;/font&gt;&lt;div&gt;&lt;font style=&quot;font-size: 16px;&quot;&gt;&lt;b&gt;left&lt;/b&gt;&lt;/font&gt;&lt;/div&gt;" style="rhombus;whiteSpace=wrap;html=1;rounded=0;strokeWidth=2;" vertex="1" parent="1">
          <mxGeometry x="562" y="90" width="120" height="120" as="geometry" />
        </mxCell>
      </root>
    </mxGraphModel>
  </diagram>
</mxfile>
